PathFileType	4	(X/Y/Z)	C:/Users/opensim2020/Desktop/walking_exp_matlab/subject03_walking05_straight_02.trc	
DataRate	CameraRate	NumFrames	NumMarkers	Units	OrigDataRate	OrigDataStartFrame	OrigNumFrames	
100.00	100.00	8	45	mm	100.00	1666	252	
Frame#	Time	LFHD			RFHD			LBHD			RBHD			C7			T10			CLAV			STRN			RBAK			LSHO			LUPA			LELB			LFRM			LWRA			LWRB			LFIN			RSHO			RUPA			RELB			RFRM			RWRA			RWRB			RFIN			LASI			RASI			LPSI			RPSI			LTHI			LKNE			LTIB			LANK			LHEE			LTOE			RTHI			RKNE			RTIB			RANK			RHEE			RTOE			*39			*40			*41			*42			*43			*44			
		X1	Y1	Z1	X2	Y2	Z2	X3	Y3	Z3	X4	Y4	Z4	X5	Y5	Z5	X6	Y6	Z6	X7	Y7	Z7	X8	Y8	Z8	X9	Y9	Z9	X10	Y10	Z10	X11	Y11	Z11	X12	Y12	Z12	X13	Y13	Z13	X14	Y14	Z14	X15	Y15	Z15	X16	Y16	Z16	X17	Y17	Z17	X18	Y18	Z18	X19	Y19	Z19	X20	Y20	Z20	X21	Y21	Z21	X22	Y22	Z22	X23	Y23	Z23	X24	Y24	Z24	X25	Y25	Z25	X26	Y26	Z26	X27	Y27	Z27	X28	Y28	Z28	X29	Y29	Z29	X30	Y30	Z30	X31	Y31	Z31	X32	Y32	Z32	X33	Y33	Z33	X34	Y34	Z34	X35	Y35	Z35	X36	Y36	Z36	X37	Y37	Z37	X38	Y38	Z38	X39	Y39	Z39	X40	Y40	Z40	X41	Y41	Z41	X42	Y42	Z42	X43	Y43	Z43	X44	Y44	Z44	X45	Y45	Z45	

190	1.890	1519.08057	-550.65680	1612.24316	1386.66711	-535.36096	1620.31079	1527.45825	-422.08524	1570.19556	1396.54504	-412.10965	1577.96887	1463.27502	-381.48825	1415.90796	1457.48901	-345.19354	1100.74988	1458.69666	-500.54193	1335.15625	1466.95789	-541.17188	1170.78516	1369.13354	-321.51642	1239.83606	1614.07263	-460.46225	1375.30054	1692.01953	-491.36945	1188.63220	1705.86609	-536.77051	1075.28467	1696.81201	-617.18134	974.66766	1656.61414	-688.41138	884.03809	1707.37390	-669.10596	873.49255	1694.09717	-726.80579	815.25928	1299.89624	-451.39557	1359.65686	1231.18005	-441.29114	1135.57813	1219.82458	-451.87766	1022.96661	1219.59204	-462.88708	886.33447	1256.41870	-490.74966	791.06158	1212.72009	-458.04935	785.93512	1224.09473	-478.43820	714.24988	1587.14685	-506.62057	942.41095	1348.11023	-524.07990	939.91364	1522.59082	-348.96533	959.35822	1374.38342	-360.33429	959.06390	1607.98267	-434.25729	640.04248	1563.23071	-418.69116	463.89386	1558.85608	-344.92215	280.83521	1510.53296	-302.86398	75.19770	1472.64648	-259.96393	42.00487	1489.73242	-453.43814	36.32627	1303.43677	-552.90173	649.51111	1342.75061	-626.88232	487.76764	1338.76099	-597.99811	298.35876	1384.23962	-587.09039	82.30523	1437.45398	-544.12531	48.45996	1402.19849	-724.14984	48.35104																		 
191	1.900	1518.94763	-559.82758	1611.27466	1386.54102	-544.65332	1619.06982	1527.26343	-431.30890	1569.02686	1396.33899	-421.45319	1576.58948	1463.26160	-390.91098	1414.86072	1457.24194	-354.56808	1099.55176	1458.99475	-509.96777	1333.96045	1467.44690	-550.40833	1169.47107	1369.27393	-330.98752	1238.59106	1614.09619	-469.79108	1374.31934	1692.50586	-501.68967	1188.34399	1706.48962	-548.40033	1075.62439	1696.93787	-630.80066	977.02814	1656.26160	-705.02283	889.09961	1706.53406	-685.32141	877.00391	1692.64404	-744.66241	820.60956	1300.04419	-460.92404	1358.14734	1231.47595	-449.92694	1134.09644	1220.11047	-459.99835	1021.44141	1219.68188	-469.52255	884.63196	1256.26001	-495.39194	788.34497	1212.32300	-463.28305	784.28925	1223.58997	-482.74271	712.37274	1587.42773	-515.74188	941.16351	1348.34387	-533.93634	938.47144	1522.53015	-358.18237	958.25708	1374.30591	-370.07919	957.60040	1608.22144	-441.42960	639.36377	1563.54407	-424.06873	463.29346	1559.01587	-347.83997	280.99939	1510.56213	-303.06525	75.79478	1472.42639	-260.10596	43.14344	1489.80298	-453.59866	36.21959	1303.69263	-560.03961	647.27722	1344.24182	-634.76630	485.65891	1341.22986	-613.91522	296.04504	1388.04651	-614.87152	79.72792	1442.00012	-573.98114	45.09523	1404.77466	-753.74994	50.44330																		 
192	1.910	1518.81201	-569.01898	1610.24792	1386.36047	-553.93738	1617.77478	1527.07690	-440.56412	1567.84473	1396.15088	-430.76321	1575.13696	1463.22229	-400.27347	1413.56458	1457.02356	-363.98911	1098.31763	1459.20459	-519.43494	1332.70935	1467.90283	-559.84131	1168.20544	1369.43250	-340.47290	1237.37939	1614.13721	-479.11136	1373.29736	1692.98401	-511.96051	1187.97278	1707.06287	-559.74554	1075.85254	1696.94287	-644.34229	979.25928	1655.48145	-720.33038	893.49237	1705.66882	-701.03534	880.47485	1691.15967	-761.92181	825.76813	1300.21021	-470.62714	1356.73242	1231.79492	-458.76645	1132.61218	1220.51294	-468.10046	1019.84082	1219.62561	-476.11942	882.97565	1256.13879	-500.51834	786.29254	1211.94458	-468.85104	782.86310	1223.13428	-486.95428	710.42712	1587.67432	-525.00995	940.10699	1348.58948	-543.85144	936.97534	1522.32654	-367.53845	957.10114	1374.11011	-379.99850	956.12073	1608.55615	-448.70459	638.72272	1563.92102	-429.52246	462.71051	1559.13525	-350.75961	281.23236	1510.35962	-303.67822	76.52217	1472.12012	-260.28027	44.46860	1489.84888	-453.63086	36.12237	1303.75024	-567.02563	644.92719	1345.85120	-642.38239	483.48288	1343.70215	-629.14972	293.98859	1391.50488	-641.26904	77.87843	1446.43994	-602.64972	42.72710	1407.09106	-781.03827	53.19474																		 
193	1.920	1518.60168	-578.29510	1609.26465	1386.13342	-563.31409	1616.55493	1526.91028	-449.89142	1566.69275	1395.86157	-440.25116	1573.72351	1463.09863	-410.02167	1412.44067	1456.80798	-373.56421	1097.11890	1459.37500	-528.91809	1331.47742	1468.29211	-569.34924	1167.06860	1369.49426	-350.03708	1236.09827	1614.12268	-488.48221	1372.26416	1693.32556	-522.09259	1187.46472	1707.53882	-570.84796	1075.92468	1696.77905	-657.10651	981.28607	1654.54932	-735.09821	897.65375	1704.69360	-716.19818	883.89624	1689.67432	-778.54010	830.85217	1300.26563	-480.22842	1355.37598	1232.07825	-467.52551	1131.19153	1220.78674	-476.29333	1018.37494	1219.52710	-482.68542	881.37402	1255.86853	-506.21466	784.34003	1211.53528	-474.45337	781.40582	1222.56494	-491.58099	708.67487	1587.79883	-534.42743	939.07935	1348.73596	-553.84644	935.36670	1522.09338	-377.00098	955.99731	1373.81274	-390.02893	954.75049	1609.00012	-455.97815	638.05115	1564.35986	-435.06509	462.17319	1559.10986	-353.78845	281.55060	1510.18774	-303.92792	77.44703	1471.47913	-260.73547	45.63407	1490.05371	-453.82266	36.06998	1303.52112	-573.71680	642.37488	1347.44519	-649.78119	481.21927	1346.11072	-643.40186	292.27222	1394.70825	-665.87720	77.09512	1450.32800	-629.11041	41.22495	1409.39001	-806.90094	56.47699																		 
194	1.930	1518.43811	-587.61835	1608.30884	1385.92358	-572.76868	1615.33008	1526.65039	-459.24658	1565.57056	1395.62854	-449.72461	1572.33423	1463.09558	-419.32086	1411.24536	1456.46924	-383.38983	1095.83020	1459.50732	-538.53497	1330.33716	1468.57654	-579.00226	1165.94995	1369.60315	-359.74292	1234.72534	1614.07666	-497.92407	1371.24915	1693.64404	-532.32495	1186.96680	1707.96533	-581.83331	1075.91296	1696.49268	-669.78149	983.23199	1653.47314	-749.21448	901.46234	1703.67004	-730.98865	887.07501	1688.11108	-794.56195	835.75977	1300.29968	-489.87454	1354.14136	1232.36353	-476.41083	1129.81079	1220.92004	-484.60800	1017.02972	1219.52673	-489.84781	879.93225	1255.51685	-511.93127	782.48419	1211.14429	-480.30258	779.99176	1221.96643	-496.42041	706.93732	1588.04309	-543.88623	937.98627	1348.87634	-564.00073	933.84283	1521.65881	-386.72324	954.90210	1373.51416	-400.17172	953.49921	1609.27429	-463.39490	637.44562	1564.78015	-440.73499	461.65271	1559.07947	-356.98013	282.01749	1510.04236	-304.47043	78.39857	1471.31226	-260.79160	47.45368	1489.89648	-453.93024	35.86546	1303.55115	-580.81567	639.94293	1349.09314	-657.05688	478.85669	1348.50024	-656.78156	290.73865	1397.69495	-688.47723	76.68658	1453.82959	-653.52448	40.32029	1411.52527	-830.74072	59.83093																		 
195	1.940	1518.23755	-597.00781	1607.41357	1385.68274	-582.30762	1614.20422	1526.46216	-468.70627	1564.56030	1395.41187	-459.24393	1571.18176	1462.83044	-429.05905	1410.03625	1456.10754	-393.31207	1094.47595	1459.58606	-548.14215	1329.23999	1468.87268	-588.87531	1165.01599	1369.55542	-369.61798	1233.41980	1614.02356	-507.31979	1370.24561	1693.80859	-542.35382	1186.34253	1708.23267	-592.42932	1075.68481	1696.19189	-682.03235	984.96979	1652.41223	-762.95209	905.11908	1702.56934	-745.16113	890.02063	1686.58289	-809.89526	840.37762	1300.22742	-499.50290	1352.76953	1232.81897	-484.89697	1128.43530	1221.10107	-493.06525	1015.74927	1219.42212	-496.93707	878.52008	1255.07288	-518.15021	780.79468	1210.76978	-486.39645	778.73975	1221.46826	-501.72891	705.47485	1588.26208	-553.44128	936.94080	1349.08643	-574.27740	932.35205	1521.24902	-396.43314	953.79028	1373.16882	-410.38248	952.37592	1609.85596	-470.74457	636.79095	1565.30688	-446.58929	461.19913	1559.19788	-360.26971	282.56430	1510.00159	-305.05310	79.51939	1471.14551	-261.07187	49.17423	1489.88965	-454.03922	35.59734	1303.52161	-588.19525	637.72455	1350.62073	-664.30072	476.58734	1350.75928	-669.36365	289.44455	1400.47473	-709.07312	76.65781	1457.14905	-675.62524	39.83087	1413.72229	-852.32471	62.94356																		 
196	1.950	1517.95850	-606.49829	1606.55029	1385.43372	-591.88153	1613.20166	1526.07739	-478.28973	1563.68237	1395.09192	-468.84601	1569.99561	1462.71777	-438.65100	1408.87769	1455.88940	-403.29108	1093.45337	1459.64343	-557.84937	1328.35779	1469.00757	-598.64343	1164.05249	1369.54919	-379.54254	1232.04138	1613.94031	-516.72241	1369.29980	1693.98267	-552.29987	1185.72717	1708.30518	-603.58331	1075.43872	1695.71802	-694.01587	986.37109	1651.24976	-775.95880	908.29230	1701.54053	-758.83386	892.79742	1685.09314	-824.57446	844.70258	1300.22656	-509.32468	1351.71143	1233.01025	-493.91513	1127.30969	1221.18018	-501.63202	1014.57257	1219.29663	-504.23795	877.27197	1254.67163	-524.54633	779.15930	1210.41150	-492.74335	777.59662	1220.92383	-507.21484	704.11957	1588.50354	-563.03210	935.84741	1349.36365	-584.77185	931.10669	1520.63391	-406.38522	952.72528	1372.68909	-420.76126	951.31488	1609.91406	-478.13797	636.43341	1565.93762	-452.62027	460.76743	1559.50122	-363.72195	283.22696	1510.21960	-305.78275	80.86469	1471.16736	-261.45108	51.00645	1490.06482	-454.26563	35.59191	1304.22900	-595.69122	635.66705	1352.06885	-671.51074	474.42661	1352.97058	-681.16760	288.27411	1403.06116	-727.39758	76.90624	1460.25366	-695.30914	39.77269	1416.04163	-871.58398	65.54420																		 
197	1.960	1517.73132	-616.01093	1605.78259	1385.16040	-601.53088	1612.23022	1525.84937	-487.73129	1562.88623	1394.79480	-478.42563	1569.06628	1462.76904	-448.02747	1408.04663	1455.56824	-413.42188	1092.30591	1459.55310	-567.57385	1327.46606	1469.14624	-608.72620	1163.29590	1369.63867	-389.45447	1230.87427	1613.81677	-526.25275	1368.42004	1694.05017	-562.18658	1185.05493	1708.62524	-613.28918	1075.14233	1695.25122	-705.46478	987.67059	1650.13354	-788.35956	911.05768	1700.47314	-771.98962	895.28815	1683.64270	-838.56616	848.65564	1300.04028	-518.98926	1350.70447	1233.06763	-503.11542	1126.24707	1221.33167	-510.30368	1013.37964	1219.17175	-511.85071	876.17236	1254.27759	-531.30707	777.73199	1210.08008	-499.42026	776.57159	1220.46375	-512.99792	702.87817	1588.64075	-572.76733	934.88568	1349.61084	-595.49365	930.04852	1520.21362	-416.32388	951.90088	1372.24182	-431.23367	950.46863	1610.16943	-485.71942	636.11365	1566.72107	-458.98309	460.40021	1559.89490	-367.49048	283.93961	1510.93640	-306.23334	82.19559	1471.50122	-261.74133	53.16212	1490.14014	-454.30399	35.45084	1304.51685	-603.84778	634.09192	1353.41309	-678.62201	472.43689	1355.04187	-692.16223	287.24976	1405.76648	-743.70599	76.80900	1463.03345	-712.32532	39.75774	1418.54199	-888.31512	67.37993																		 
